<svg width="21" height="25" viewBox="0 0 21 25" fill="none" xmlns="http://www.w3.org/2000/svg">
<path d="M17.497 23.997C16.1401 25.3162 14.6586 25.1079 13.2325 24.483C11.7233 23.8442 10.3388 23.8164 8.74649 24.483C6.75269 25.344 5.70042 25.0941 4.50968 23.997C-2.24706 17.0117 -1.25017 6.3742 6.4204 5.98536C8.28958 6.08257 9.59108 7.013 10.6849 7.09633C12.3187 6.76303 13.8833 5.80482 15.6278 5.92981C17.7186 6.09645 19.297 6.92968 20.3354 8.42949C16.0155 11.0264 17.0401 16.734 21 18.331C20.2108 20.4141 19.1862 22.4833 17.4832 24.0109L17.497 23.997ZM10.5464 5.90203C10.3388 2.8052 12.8448 0.249968 15.7248 0C16.1263 3.58288 12.4848 6.24921 10.5464 5.90203Z" fill="black"/>
</svg>
